<svg width="18" height="15" viewBox="0 0 18 15" fill="none" xmlns="http://www.w3.org/2000/svg">
<path d="M15.6582 14.0037H2.16522C1.80747 14.0033 1.46448 13.8451 1.21151 13.5639C0.958548 13.2827 0.816275 12.9014 0.815918 12.5037V2.00366C0.816275 1.60596 0.958548 1.22466 1.21151 0.94344C1.46448 0.662222 1.80747 0.504059 2.16522 0.503662H15.6582C16.0159 0.504059 16.3589 0.662222 16.6119 0.94344C16.8649 1.22466 17.0071 1.60596 17.0075 2.00366V12.5037C17.0069 12.9013 16.8646 13.2825 16.6117 13.5637C16.3588 13.8448 16.0159 14.0031 15.6582 14.0037ZM2.16522 2.00366V12.5037H15.6582V2.00366H2.16522Z" fill="#1B9145"/>
</svg>
